<svg xmlns="http://www.w3.org/2000/svg" width="43.865" height="43.865" viewBox="0 0 43.865 43.865">
  <g id="Group_2225" data-name="Group 2225" transform="translate(-8.068 -8.068)">
    <path id="Path_23" data-name="Path 23" d="M43.865,23.432A20.432,20.432,0,1,1,23.432,3,20.432,20.432,0,0,1,43.865,23.432Z" transform="translate(6.568 6.568)" fill="#1d1d0c" stroke="#ecec0b" stroke-linecap="round" stroke-linejoin="round" stroke-width="3"/>
    <g id="Icon_feather-mail" data-name="Icon feather-mail" transform="translate(20.407 22.326)">
      <path id="Path_26" data-name="Path 26" d="M4.919,6H20.267a1.924,1.924,0,0,1,1.919,1.919V19.43a1.924,1.924,0,0,1-1.919,1.919H4.919A1.924,1.924,0,0,1,3,19.43V7.919A1.924,1.924,0,0,1,4.919,6Z" transform="translate(-3 -6)" fill="#1d1d0c" stroke="#ecec0b" stroke-linecap="round" stroke-linejoin="round" stroke-width="3"/>
      <path id="Path_27" data-name="Path 27" d="M22.186,9l-9.593,6.715L3,9" transform="translate(-3 -7.081)" fill="#1d1d0c" stroke="#ecec0b" stroke-linecap="round" stroke-linejoin="round" stroke-width="3"/>
    </g>
  </g>
</svg>
