<svg xmlns="http://www.w3.org/2000/svg" width="43.865" height="43.865" viewBox="0 0 43.865 43.865">
  <g id="Group_2228" data-name="Group 2228" transform="translate(-154.773 -8.068)">
    <path id="Path_34" data-name="Path 34" d="M43.865,23.432A20.432,20.432,0,1,1,23.432,3,20.432,20.432,0,0,1,43.865,23.432Z" transform="translate(153.273 6.568)" fill="#1d1d0c" stroke="#ecec0b" stroke-linecap="round" stroke-linejoin="round" stroke-width="3"/>
    <path id="Icon_feather-twitter" data-name="Icon feather-twitter" d="M24.9,4.5a11.593,11.593,0,0,1-3.34,1.627A4.765,4.765,0,0,0,13.2,9.313v1.064A11.337,11.337,0,0,1,3.627,5.559S-.627,15.131,8.945,19.385A12.38,12.38,0,0,1,1.5,21.512c9.572,5.318,21.271,0,21.271-12.231a4.786,4.786,0,0,0-.085-.883A8.211,8.211,0,0,0,24.9,4.5Z" transform="translate(163.507 15.973)" fill="#1d1d0c" stroke="#ecec0b" stroke-linecap="round" stroke-linejoin="round" stroke-width="3"/>
  </g>
</svg>
