<svg xmlns="http://www.w3.org/2000/svg" width="43.865" height="43.865" viewBox="0 0 43.865 43.865">
  <g id="Group_2226" data-name="Group 2226" transform="translate(-57.068 -8.068)">
    <path id="Path_28" data-name="Path 28" d="M43.865,23.432A20.432,20.432,0,1,1,23.432,3,20.432,20.432,0,0,1,43.865,23.432Z" transform="translate(55.568 6.568)" fill="#1d1d0c" stroke="#ecec0b" stroke-linecap="round" stroke-linejoin="round" stroke-width="3"/>
    <g id="Icon_feather-instagram" data-name="Icon feather-instagram" transform="translate(66.458 17.458)">
      <path id="Path_29" data-name="Path 29" d="M7.771,3h9.542a4.771,4.771,0,0,1,4.771,4.771v9.542a4.771,4.771,0,0,1-4.771,4.771H7.771A4.771,4.771,0,0,1,3,17.314V7.771A4.771,4.771,0,0,1,7.771,3Z" fill="#1d1d0c" stroke="#ecec0b" stroke-linecap="round" stroke-linejoin="round" stroke-width="3"/>
      <path id="Path_30" data-name="Path 30" d="M19.657,15.192a3.817,3.817,0,1,1-3.216-3.216,3.817,3.817,0,0,1,3.216,3.216Z" transform="translate(-3.298 -3.251)" fill="#1d1d0c" stroke="#ecec0b" stroke-linecap="round" stroke-linejoin="round" stroke-width="3"/>
      <path id="Path_31" data-name="Path 31" d="M26.25,9.75h0" transform="translate(-8.459 -2.456)" fill="#1d1d0c" stroke="#ecec0b" stroke-linecap="round" stroke-linejoin="round" stroke-width="3"/>
    </g>
  </g>
</svg>
