<svg xmlns="http://www.w3.org/2000/svg" width="43.865" height="43.865" viewBox="0 0 43.865 43.865">
  <g id="Group_2229" data-name="Group 2229" transform="translate(-203.773 -8.068)">
    <path id="Path_36" data-name="Path 36" d="M43.865,23.432A20.432,20.432,0,1,1,23.432,3,20.432,20.432,0,0,1,43.865,23.432Z" transform="translate(202.273 6.568)" fill="#1d1d0c" stroke="#ecec0b" stroke-linecap="round" stroke-linejoin="round" stroke-width="3"/>
    <path id="Icon_simple-tiktok" data-name="Icon simple-tiktok" d="M11.077.016C12.119,0,13.152.008,14.186,0a4.953,4.953,0,0,0,1.392,3.316A5.608,5.608,0,0,0,18.95,4.739v3.2a8.512,8.512,0,0,1-3.34-.771,9.825,9.825,0,0,1-1.288-.74c-.008,2.322.008,4.644-.016,6.958a6.074,6.074,0,0,1-1.074,3.133,5.925,5.925,0,0,1-4.7,2.553,5.8,5.8,0,0,1-3.244-.819,6,6,0,0,1-2.9-4.541c-.016-.4-.024-.8-.008-1.185A5.987,5.987,0,0,1,9.32,7.221c.016,1.177-.032,2.354-.032,3.531A2.728,2.728,0,0,0,5.8,12.437a3.155,3.155,0,0,0-.111,1.28A2.706,2.706,0,0,0,8.477,16a2.672,2.672,0,0,0,2.2-1.28,1.835,1.835,0,0,0,.326-.843c.08-1.423.048-2.839.056-4.262.008-3.2-.008-6.4.016-9.6Z" transform="translate(215.047 20.458)" fill="#ecec0b"/>
  </g>
</svg>
